<svg width="56" height="57" viewBox="0 0 56 57" fill="none" xmlns="http://www.w3.org/2000/svg">
<path d="M28.3182 0.98999L29.3894 24.3493L40.605 3.76286L31.3197 25.2685L50.4582 11.5323L32.6555 26.9247L55.9264 22.7594L33.1323 28.99L55.9264 35.2206L32.6555 31.0553L50.4582 46.4477L31.3197 32.7115L40.605 54.2171L29.3894 33.6306L28.3182 56.99L27.2469 33.6306L16.0314 54.2171L25.3166 32.7115L6.17813 46.4477L23.9808 31.0553L0.709995 35.2206L23.5041 28.99L0.709995 22.7594L23.9808 26.9247L6.17813 11.5323L25.3166 25.2685L16.0314 3.76286L27.2469 24.3493L28.3182 0.98999Z" fill="#3F3B37"/>
</svg>
